<svg width="100%" height="100%" viewBox="0 0 24 24" fill="none" xmlns="http://www.w3.org/2000/svg">
<path d="M12 2C6.48 2 2 6.58 2 12.2C2 16.54 4.87 20.22 8.84 21.5C9.34 21.6 9.52 21.27 9.52 20.99V19.2C6.73 19.83 6.14 17.8 6.14 17.8C5.69 16.64 5.03 16.34 5.03 16.34C4.12 15.72 5.1 15.74 5.1 15.74C6.12 15.82 6.68 16.86 6.68 16.86C7.57 18.43 9.09 17.97 9.68 17.7C9.78 17.06 10.03 16.62 10.3 16.36C7.98 16.1 5.54 15.21 5.54 11.52C5.54 10.49 5.91 9.64 6.52 8.98C6.42 8.72 6.09 7.57 6.61 6.06C6.61 6.06 7.47 5.78 9.52 7.27C10.33 7.03 11.19 6.92 12.05 6.92C12.91 6.92 13.77 7.03 14.58 7.27C16.62 5.78 17.48 6.06 17.48 6.06C17.99 7.57 17.67 8.72 17.57 8.98C18.19 9.64 18.55 10.49 18.55 11.52C18.55 15.22 16.1 16.1 13.77 16.36C14.12 16.69 14.41 17.33 14.41 18.35V20.99C14.41 21.28 14.58 21.61 15.09 21.5C19.05 20.22 22 16.54 22 12.2C22 6.58 17.52 2 12 2Z" stroke="#00E7FF" stroke-width="1.6"></path>
</svg>
